name C:/MyDriveSym/Projects/mobilecap/Data\Session20210823_0001\mocap\ForceDataProcessed\static1_forces.mot
datacolumns 28
datarows 10
range 0.00000000 0.00450000
endheader 
time	R_ground_force_vx	R_ground_force_vy	R_ground_force_vz	R_ground_force_px	R_ground_force_py	R_ground_force_pz	R_ground_torque_x	R_ground_torque_y	R_ground_torque_z	L_ground_force_vx	L_ground_force_vy	L_ground_force_vz	L_ground_force_px	L_ground_force_py	L_ground_force_pz	L_ground_torque_x	L_ground_torque_y	L_ground_torque_z	3_ground_force_vx	3_ground_force_vy	3_ground_force_vz	3_ground_force_px	3_ground_force_py	3_ground_force_pz	3_ground_torque_x	3_ground_torque_y	3_ground_torque_z	
          0.00000000	          2.32153100	        283.63707100	        -24.86213300	         -0.23164200	          0.00600000	         -0.39445200	          0.00000000	         -0.73058300	          0.00000000	         -3.03650200	        330.44150000	         26.35570700	         -0.20272500	          0.00600000	         -0.71799700	          0.00000000	          1.45152400	          0.00000000	          0.00000000	          0.00000000	          0.00000000	          0.00000000	          0.00000000	          0.00000000	          0.00000000	          0.00000000	          0.00000000	
          0.00050000	          2.36488000	        283.66808400	        -24.88014200	         -0.23163000	          0.00600000	         -0.39444100	          0.00000000	         -0.73452400	          0.00000000	         -3.05547900	        330.40425600	         26.33966600	         -0.20275500	          0.00600000	         -0.71800600	          0.00000000	          1.44987900	          0.00000000	          0.00000000	          0.00000000	          0.00000000	          0.00000000	          0.00000000	          0.00000000	          0.00000000	          0.00000000	          0.00000000	
          0.00100000	          2.40825300	        283.69895800	        -24.89794600	         -0.23161700	          0.00600000	         -0.39443100	          0.00000000	         -0.73846800	          0.00000000	         -3.07426700	        330.36823300	         26.32423400	         -0.20278500	          0.00600000	         -0.71801400	          0.00000000	          1.44821000	          0.00000000	          0.00000000	          0.00000000	          0.00000000	          0.00000000	          0.00000000	          0.00000000	          0.00000000	          0.00000000	          0.00000000	
          0.00150000	          2.45141200	        283.72942400	        -24.91543600	         -0.23160500	          0.00600000	         -0.39442100	          0.00000000	         -0.74239900	          0.00000000	         -3.09272900	        330.33373000	         26.30949300	         -0.20281300	          0.00600000	         -0.71802200	          0.00000000	          1.44652000	          0.00000000	          0.00000000	          0.00000000	          0.00000000	          0.00000000	          0.00000000	          0.00000000	          0.00000000	          0.00000000	          0.00000000	
          0.00200000	          2.49412600	        283.75922300	        -24.93250800	         -0.23159400	          0.00600000	         -0.39441100	          0.00000000	         -0.74630200	          0.00000000	         -3.11075300	        330.30100000	         26.29551400	         -0.20284100	          0.00600000	         -0.71803000	          0.00000000	          1.44480600	          0.00000000	          0.00000000	          0.00000000	          0.00000000	          0.00000000	          0.00000000	          0.00000000	          0.00000000	          0.00000000	          0.00000000	
          0.00250000	          2.53616700	        283.78812300	        -24.94905900	         -0.23158300	          0.00600000	         -0.39440300	          0.00000000	         -0.75015800	          0.00000000	         -3.12825100	        330.27022800	         26.28235100	         -0.20286800	          0.00600000	         -0.71803700	          0.00000000	          1.44307000	          0.00000000	          0.00000000	          0.00000000	          0.00000000	          0.00000000	          0.00000000	          0.00000000	          0.00000000	          0.00000000	          0.00000000	
          0.00300000	          2.57732100	        283.81591300	        -24.96500000	         -0.23157200	          0.00600000	         -0.39439500	          0.00000000	         -0.75394800	          0.00000000	         -3.14515100	        330.24151300	         26.27004900	         -0.20289400	          0.00600000	         -0.71804400	          0.00000000	          1.44131100	          0.00000000	          0.00000000	          0.00000000	          0.00000000	          0.00000000	          0.00000000	          0.00000000	          0.00000000	          0.00000000	          0.00000000	
          0.00350000	          2.61740400	        283.84239600	        -24.98025400	         -0.23156200	          0.00600000	         -0.39438700	          0.00000000	         -0.75765200	          0.00000000	         -3.16139500	        330.21486400	         26.25863700	         -0.20292000	          0.00600000	         -0.71805100	          0.00000000	          1.43952600	          0.00000000	          0.00000000	          0.00000000	          0.00000000	          0.00000000	          0.00000000	          0.00000000	          0.00000000	          0.00000000	          0.00000000	
          0.00400000	          2.65626100	        283.86738600	        -24.99476600	         -0.23155200	          0.00600000	         -0.39438100	          0.00000000	         -0.76125500	          0.00000000	         -3.17693500	        330.19020500	         26.24812400	         -0.20294400	          0.00600000	         -0.71805600	          0.00000000	          1.43771700	          0.00000000	          0.00000000	          0.00000000	          0.00000000	          0.00000000	          0.00000000	          0.00000000	          0.00000000	          0.00000000	          0.00000000	
          0.00450000	          2.69377700	        283.89070800	        -25.00850700	         -0.23154200	          0.00600000	         -0.39437500	          0.00000000	         -0.76474600	          0.00000000	         -3.19173400	        330.16740300	         26.23849500	         -0.20296700	          0.00600000	         -0.71806200	          0.00000000	          1.43588500	          0.00000000	          0.00000000	          0.00000000	          0.00000000	          0.00000000	          0.00000000	          0.00000000	          0.00000000	          0.00000000	          0.00000000	
